# xmcd
#
# Track frame offsets:
#	150
#	13283
#	26844
#	40561
#	54645
#	68768
#	79964
#	91831
#	105900
#	120449
#	134764
#	147806
#	161165
#	175075
#	189486
#
# Disc length: 2709 seconds
#
# Revision: 1
# Processed by: cddbd v1.5.2PL0 Copyright (c) Steve Scherf et al.
# Submitted via: audiograbber 1.83.01
#
DISCID=c60a930f
DTITLE=Variuos Artists - The Blues Box [CD2]
DYEAR=2006
DGENRE=Blues
TTITLE0=Blind Lemmon Jefferson - See That My Grave's Kept Clean
TTITLE1=Skip James - Devil Got My Woman
TTITLE2=Robert Johnson - Terraplane Blues
TTITLE3=Leroy Carr - How Long, How Long Blues
TTITLE4=Rev. Gary Davis - Twelve Gates to the City
TTITLE5=Big Bill Broonzy - All By Myself
TTITLE6=Leadbelly - Rock Island Line
TTITLE7=Sonny Terry and Brownie McGhee - Carolina Blues
TTITLE8=Josh White - One Meatball
TTITLE9=Sleepy John Estes - Down South Blues
TTITLE10=Blind Blake - Southern Rag
TTITLE11=Mississippi John Hurt - Stack O Lee
TTITLE12=Jimmy Tancey - At The Window
TTITLE13=Blind Willie McTell - Dying' Crapshooter's Blues
TTITLE14=Washington Phillips - Denomination Blues
EXTD=
EXTT0=
EXTT1=
EXTT2=
EXTT3=
EXTT4=
EXTT5=
EXTT6=
EXTT7=
EXTT8=
EXTT9=
EXTT10=
EXTT11=
EXTT12=
EXTT13=
EXTT14=
PLAYORDER=
